<svg xmlns="http://www.w3.org/2000/svg" xmlns:xlink="http://www.w3.org/1999/xlink" width="843.396" height="118.252" viewBox="0 0 843.396 118.252">
  <defs>
    <clipPath id="clip-path">
      <rect id="Rectangle_1496" data-name="Rectangle 1496" width="843.396" height="118.252" fill="none"/>
    </clipPath>
  </defs>
  <g id="Group_74" data-name="Group 74" transform="translate(0 0)">
    <line id="Line_34" data-name="Line 34" y1="62" x2="31" transform="translate(1.342 5.345)" fill="#fff"/>
    <g id="Group_71" data-name="Group 71" transform="translate(0 0)">
      <g id="Group_70" data-name="Group 70" clip-path="url(#clip-path)">
        <line id="Line_35" data-name="Line 35" y1="91.485" x2="58.711" transform="translate(2.541 7.886)" fill="none" stroke="#000" stroke-miterlimit="10" stroke-width="3"/>
        <path id="Path_262" data-name="Path 262" d="M148.339,96.354,82.053,6.345,23.342,97.83" transform="translate(20.865 3.017)" fill="none" stroke="#000" stroke-miterlimit="10" stroke-width="6"/>
      </g>
    </g>
    <path id="Path_263" data-name="Path 263" d="M111.763,67.345v0Z" transform="translate(99.905)" fill="#fff"/>
    <line id="Line_36" data-name="Line 36" y1="60" transform="translate(211.668 7.345)" fill="none" stroke="#000" stroke-miterlimit="10" stroke-width="3"/>
    <g id="Group_73" data-name="Group 73" transform="translate(0 0)">
      <g id="Group_72" data-name="Group 72" clip-path="url(#clip-path)">
        <path id="Path_264" data-name="Path 264" d="M231.559,87.19c-37.283,22.007-79.811,12.716-92.8-8.372-10.252-16.643-2.436-41.163,15.151-55.259,18.95-15.19,48.293-17.512,71.968-5.024" transform="translate(119.947 4.986)" fill="none" stroke="#000" stroke-miterlimit="10" stroke-width="6"/>
        <path id="Path_265" data-name="Path 265" d="M389.024,96.879,383.342,8.345C429.5,20.179,457.2,37.851,472.355,49.661c12.085,9.416,29.742,23.5,24.621,35.414-3.407,7.925-15.49,11.638-20.833,13.28-19.969,6.135-38.586.245-43.56-1.476" transform="translate(342.67 3.968)" fill="none" stroke="#000" stroke-miterlimit="10" stroke-width="3"/>
        <path id="Path_266" data-name="Path 266" d="M213.7,96.275l-5.682-85.93c46.158,11.486,73.855,28.638,89.013,40.1,12.085,9.138,29.742,22.806,24.621,34.372-3.407,7.694-15.49,11.3-20.833,12.891-19.969,5.955-38.586.238-43.56-1.433" transform="translate(185.949 4.919)" fill="none" stroke="#000" stroke-miterlimit="10" stroke-width="3"/>
        <path id="Path_267" data-name="Path 267" d="M351.526,65.636l-60.6,36.621L336.374,6.345l87.119,88.937" transform="translate(260.054 3.017)" fill="none" stroke="#000" stroke-miterlimit="10" stroke-width="6"/>
      </g>
    </g>
  </g>
</svg>
